<svg xmlns="http://www.w3.org/2000/svg" xmlns:xlink="http://www.w3.org/1999/xlink" width="85" height="84" viewBox="0 0 85 84">
    <defs>
        <path id="a" d="M.793 0h.823v74.118H.793z"/>
    </defs>
    <g fill="none" fill-rule="evenodd">
        <path fill="#FFF" d="M1 0h84v84H1z"/>
        <g transform="translate(44.647 6.342)">
            <mask id="b" fill="#fff">
                <use xlink:href="#a"/>
            </mask>
            <path stroke="#1D2320" d="M1.205 0v74.118" mask="url(#b)"/>
        </g>
        <path stroke="#1D2320" d="M8.793 43.4H82.91M24.218 20.84l2.566 2.567M64.282 60.904l2.566 2.566"/>
        <path stroke="#1D2320" stroke-width=".93" d="M27.83 60.58l-2.507 2.508M24.277 64.134l-1.106 1.106"/>
        <path stroke="#1D2320" d="M68.212 21.199l-3.76 3.76"/>
        <path fill="#F3F4F6" d="M78.294 43.4L45.851 75.844 13.41 43.4l32.442-32.443z"/>
        <path stroke="#1D2320" d="M78.294 43.4L45.851 75.844 13.41 43.4l32.442-32.443z"/>
        <path fill="#E0BA5C" d="M67.614 43.4L45.852 65.164 24.089 43.4l21.763-21.763z"/>
        <path stroke="#1D2320" d="M67.614 43.4L45.852 65.164 24.089 43.4l21.763-21.763z"/>
        <path fill="#F4AE1F" d="M29.893 59.36H61.81V27.44H29.893z"/>
        <path stroke="#1D2320" stroke-width="1.037" d="M29.893 59.36H61.81V27.44H29.893z"/>
        <path fill="#C8CCC9" d="M45.852 31.321l12.078 12.08L45.852 55.48 33.772 43.4z"/>
        <path stroke="#1D2320" d="M45.852 31.321l12.078 12.08L45.852 55.48 33.772 43.4z"/>
        <path fill="#F7FBFC" d="M41.625 47.627h8.453v-8.454h-8.453z"/>
        <path stroke="#1D2320" d="M41.625 47.627h8.453v-8.454h-8.453z"/>
        <path fill="#F4AE1F" d="M19.252 2.366l3.757 3.757-3.757 3.757-3.757-3.757z"/>
        <path stroke="#1D2320" d="M19.252 2.366l3.757 3.757-3.757 3.757-3.757-3.757z"/>
        <path fill="#F4AE1F" d="M80.84 18.537l3.083 3.083-3.083 3.083-3.083-3.083z"/>
        <path stroke="#1D2320" d="M80.84 18.537l3.083 3.083-3.083 3.083-3.083-3.083z"/>
        <path fill="#F4AE1F" d="M1.495 62.123l5.08 5.08 5.078-5.08-5.078-5.08z"/>
        <path stroke="#1D2320" d="M6.574 57.043l5.08 5.08-5.08 5.079-5.08-5.08z"/>
    </g>
</svg>
