<svg xmlns="http://www.w3.org/2000/svg" width="84" height="84" viewBox="0 0 84 84">
    <g fill="none" fill-rule="evenodd">
        <path fill="#FFF" d="M0 0h84v84H0z"/>
        <path fill="#F4B219" d="M61.89 20.697H39.137V8.49H61.89l-6.09 6.074z"/>
        <path stroke="#1D2320" d="M61.89 20.697H39.137V8.49H61.89l-6.09 6.074zM39.136 8.491V39.55"/>
        <path fill="#F9D59D" d="M30.64 37.558l-16.927 36.21H47.78l17.998-35.995z"/>
        <path stroke="#1D2320" d="M30.64 37.558l-16.927 36.21H47.78l17.998-35.995z"/>
        <path fill="#F9D59D" d="M65.778 37.773L47.78 73.77h35.84z"/>
        <path stroke="#1D2320" d="M65.778 37.773L47.78 73.77h35.84z"/>
        <path fill="#F9D59D" d="M64.755 73.57V60.092c0-.365.296-.662.661-.662H68.1c.366 0 .662.297.662.662v13.537"/>
        <path stroke="#1D2320" d="M64.755 73.57V60.092c0-.365.296-.662.661-.662H68.1c.366 0 .662.297.662.662v13.537"/>
        <path fill="#FEFEFE" d="M40.95 75.476c.207.001-.203-4.249-.286-4.682-1.167-6.12-7.662-9.53-13.522-8.919-2.805.293-5.199 1.586-7.417 3.259-.225.17-2.453 2.106-2.679 1.88-2.33-2.33-6.043-2.538-9.088-1.84-2.717.621-4.886 2.31-6.191 4.768-.613 1.154-1.03 2.41-1.278 3.692-.018.089-.249 1.693-.219 1.694l40.68.148"/>
        <path stroke="#1D2320" d="M40.95 75.476c.207.001-.203-4.249-.286-4.682-1.167-6.12-7.662-9.53-13.522-8.919-2.805.293-5.199 1.586-7.417 3.259-.225.17-2.453 2.106-2.679 1.88-2.33-2.33-6.043-2.538-9.088-1.84-2.717.621-4.886 2.31-6.191 4.768-.613 1.154-1.03 2.41-1.278 3.692-.018.089-.249 1.693-.219 1.694l40.68.148z"/>
        <path fill="#F1BB19" d="M20.676 32.177c-.688-1.028-3.036-1.126-3.87-.444-1.23 1.007-.552 2.663.951 2.832 1.094.123 3.41-.546 3.081-2.009a1.117 1.117 0 0 0-.162-.38"/>
        <path stroke="#1D2320" d="M20.676 32.177c-.688-1.028-3.036-1.126-3.87-.444-1.23 1.007-.552 2.663.951 2.832 1.094.123 3.41-.546 3.081-2.009a1.117 1.117 0 0 0-.162-.38zM20.828 25.301v7.593"/>
        <path fill="#F1BB19" d="M6.168 25.387c-.686-1.027-3.035-1.126-3.869-.443-1.231 1.007-.553 2.663.951 2.83 1.094.124 3.409-.545 3.082-2.008a1.114 1.114 0 0 0-.164-.379"/>
        <path stroke="#1D2320" d="M6.168 25.387c-.686-1.027-3.035-1.126-3.869-.443-1.231 1.007-.553 2.663.951 2.83 1.094.124 3.409-.545 3.082-2.008a1.114 1.114 0 0 0-.164-.379zM6.322 18.512v7.591"/>
        <path fill="#F1BB19" d="M18.834 14.913c-.688-1.029-3.035-1.126-3.87-.444-1.23 1.007-.552 2.662.952 2.831 1.094.122 3.408-.546 3.08-2.009a1.092 1.092 0 0 0-.162-.378"/>
        <path stroke="#1D2320" d="M18.834 14.913c-.688-1.029-3.035-1.126-3.87-.444-1.23 1.007-.552 2.662.952 2.831 1.094.122 3.408-.546 3.08-2.009a1.092 1.092 0 0 0-.162-.378zM18.987 8.037v7.591"/>
    </g>
</svg>
