<svg xmlns="http://www.w3.org/2000/svg" width="84" height="84" viewBox="0 0 84 84">
    <g fill="none" fill-rule="evenodd">
        <path fill="#FFF" d="M0 0h84v84H0z"/>
        <path fill="#FEFEFE" d="M51.365 25L70 57H51z"/>
        <path stroke="#1D2320" d="M51.365 25L70 57H51z"/>
        <path fill="#FEFEFE" d="M52 8L22 58h30z"/>
        <path stroke="#1D2320" d="M52 8L22 58h30z"/>
        <path fill="#F4B219" d="M22 58.894c-.013 2.03 1.36 3.882 2.76 5.192 1.68 1.576 3.59 3.092 5.72 4.038 2.414 1.071 4.642.859 7.195.859h31.712c2.338 0 2.613-2.7 2.613-2.7V59.41c0-4.354-3.19-3.298-3.19-3.298H22.11c-.072.002-.106 2.029-.11 2.781"/>
        <path stroke="#1D2320" d="M22 58.894c-.013 2.03 1.36 3.882 2.76 5.192 1.68 1.576 3.59 3.092 5.72 4.038 2.414 1.071 4.642.859 7.195.859h31.712c2.338 0 2.613-2.7 2.613-2.7V59.41c0-4.354-3.19-3.298-3.19-3.298H22.11c-.072.002-.106 2.029-.11 2.781zM2.37 48.199c.956-1.242 1.94-2.69 3.672-2.792 1.722-.1 2.93.674 3.838 1.939.532-.872 1.215-1 2.064-1.61 2.193-1.573 3.924.658 4.85 2.463M68.884 49.678c.955-1.243 1.94-2.691 3.671-2.792 1.722-.1 2.93.673 3.84 1.938.531-.872 1.214-1 2.063-1.61 2.193-1.573 3.924.658 4.85 2.464"/>
        <path fill="#FFF" d="M24.595 18.752a10.212 10.212 0 0 1 3.234 7.329h-.056c-2.067 1.702-5.731-.039-5.731-.039a4.405 4.405 0 0 0-1.073-2.891c4.434-.055 3.61-4.382 3.61-4.382l.016-.017z"/>
        <path fill="#F4B219" d="M24.58 18.768s.822 4.328-3.61 4.382a4.423 4.423 0 0 0-3.377-1.558c1.016-3.383-.514-5.477-.624-5.62a10.23 10.23 0 0 1 7.627 2.78l-.017.016zM22.042 26.042s3.664 1.74 5.732.038h.055c.005.05.005.105.005.155 0 2.234-.713 4.306-1.922 5.986-3.444.436-4.77-3.472-4.77-3.472l-.017-.01c.575-.746.917-1.68.917-2.697"/>
        <path fill="#FFF" d="M21.141 28.75s1.326 3.908 4.77 3.47a10.255 10.255 0 0 1-8.357 4.295c-1.668-3.35.039-6.03.039-6.03 1.437 0 2.72-.685 3.531-1.746l.017.01zM16.968 15.971c.11.144 1.642 2.238.625 5.62-1.714 0-3.2.97-3.946 2.39l-.044-.022s-2.609-3.715-5.92-.586a10.273 10.273 0 0 1 9.285-7.402"/>
        <path fill="#F9D59D" d="M14.282 29.004a4.416 4.416 0 0 0 3.31 1.481s-1.707 2.68-.038 6.03a10.244 10.244 0 0 1-8.307-4.227c1.033-3.305 5.002-3.257 5.002-3.257l.033-.027z"/>
        <path fill="#F4B219" d="M13.144 26.042c0 1.139.431 2.177 1.139 2.962l-.034.027s-3.969-.05-5.002 3.256a10.193 10.193 0 0 1-1.973-6.052c0-.994.144-1.952.409-2.862 3.31-3.129 5.92.586 5.92.586l.044.021a4.467 4.467 0 0 0-.503 2.062"/>
        <path stroke="#1D2320" d="M27.829 26.08c.006.05.006.105.006.155 0 2.234-.714 4.306-1.924 5.986a10.253 10.253 0 0 1-8.357 4.295 10.245 10.245 0 0 1-8.307-4.23 10.193 10.193 0 0 1-1.973-6.05c0-.995.144-1.953.409-2.863a10.273 10.273 0 0 1 9.87-7.419 10.23 10.23 0 0 1 7.043 2.798 10.216 10.216 0 0 1 3.233 7.328z"/>
        <path stroke="#1D2320" d="M22.042 26.042c0 1.017-.342 1.95-.917 2.697a4.445 4.445 0 0 1-6.843.265 4.411 4.411 0 0 1-1.138-2.962c0-.741.183-1.443.503-2.062a4.455 4.455 0 0 1 3.946-2.388c1.349 0 2.565.603 3.377 1.558a4.405 4.405 0 0 1 1.072 2.892zM16.963 15.966l.006.005c.11.144 1.641 2.238.624 5.62"/>
        <path stroke="#1D2320" d="M24.58 18.768s.822 4.328-3.61 4.382h-.027M22.042 26.042s3.664 1.74 5.732.038M21.141 28.75s1.326 3.908 4.77 3.47c.012-.005.016-.005.027-.005M17.593 30.485s-1.708 2.68-.04 6.03M14.25 29.031s-3.97-.049-5.003 3.256c-.005.022-.016.05-.022.072M13.602 23.958s-2.608-3.713-5.919-.586c-.05.044-.094.089-.144.14"/>
        <path fill="#F4B219" d="M12.148 60.315a3.349 3.349 0 1 1-6.698 0 3.349 3.349 0 0 1 6.698 0"/>
        <path stroke="#1D2320" d="M12.148 60.315a3.349 3.349 0 1 1-6.698 0 3.349 3.349 0 0 1 6.698 0z"/>
        <path fill="#F4B219" d="M78.34 74.377a3.35 3.35 0 1 1-6.698.001 3.35 3.35 0 0 1 6.698-.001"/>
        <path stroke="#1D2320" d="M78.34 74.377a3.35 3.35 0 1 1-6.698.001 3.35 3.35 0 0 1 6.698-.001zM14.76 78.484s3.475-6.624 6.841-.652c0 0 4.017-6.515 7.276.108 0 0 3.583-5.646 6.84.544"/>
    </g>
</svg>
