<?xml version="1.0" encoding="UTF-8"?>
<svg width="84px" height="84px" viewBox="0 0 84 84" version="1.1" xmlns="http://www.w3.org/2000/svg" xmlns:xlink="http://www.w3.org/1999/xlink">
    <!-- Generator: sketchtool 52.1 (67048) - http://www.bohemiancoding.com/sketch -->
    <title>31A42F3C-94DF-4EB1-9C0B-69A394461B77</title>
    <desc>Created with sketchtool.</desc>
    <g id="Page-2" stroke="none" stroke-width="1" fill="none" fill-rule="evenodd">
        <g id="图片-/-4">
            <rect id="Rectangle" fill="#FFFFFF" x="0" y="0" width="84" height="84"></rect>
            <g id="Group" transform="translate(6.000000, 7.000000)">
                <path d="M60.4447299,21.1764706 C60.3324146,21.2515803 60.6815495,22.7606024 60.7007041,22.9074077 C60.8217259,23.8607888 61.0724761,24.7988065 61.1943686,25.7590158 C61.4007152,27.3696067 61.5504688,29.0331158 61.2100405,30.6368786 C60.9505836,31.8599718 60.0276834,34.5178309 58.6807715,34.9411765 C58.2715611,33.770148 58.3368606,32.4890155 58.0530253,31.2881138 C57.7752845,30.1102572 57.4305029,28.8974062 56.9176839,27.7955128 C56.4179247,26.7183715 55.655226,25.7641369 55.0588235,24.7347926 C55.0588235,24.7347926 60.4273166,21.1884199 60.4447299,21.1764706" id="Fill-1" fill="#E0BA5C"></path>
                <path d="M60.4447299,21.1764706 C60.3324146,21.2515803 60.6815495,22.7606024 60.7007041,22.9074077 C60.8217259,23.8607888 61.0724761,24.7988065 61.1943686,25.7590158 C61.4007152,27.3696067 61.5504688,29.0331158 61.2100405,30.6368786 C60.9505836,31.8599718 60.0276834,34.5178309 58.6807715,34.9411765 C58.2715611,33.770148 58.3368606,32.4890155 58.0530253,31.2881138 C57.7752845,30.1102572 57.4305029,28.8974062 56.9176839,27.7955128 C56.4179247,26.7183715 55.655226,25.7641369 55.0588235,24.7347926 C55.0588235,24.7347926 60.4273166,21.1884199 60.4447299,21.1764706 Z" id="Stroke-3" stroke="#1D2320"></path>
                <path d="M54.72609,26.4705882 C54.5994067,26.5348241 54.8105455,28.0964503 54.8151354,28.2474914 C54.8445113,29.2231822 55.0106683,30.1971369 55.0400441,31.1806402 C55.0896158,32.8308077 55.0758459,34.5287181 54.553507,36.119858 C54.1550974,37.3342632 52.9130509,39.9358161 51.4552757,40.2352941 C51.1468296,39.0113403 51.3469524,37.7205465 51.1734514,36.4766275 C51.0027045,35.2587501 50.7658619,33.9983381 50.3426665,32.8334119 C49.927733,31.6962633 49.2254672,30.6563366 48.7058824,29.5582504 C48.7058824,29.5582504 54.7068121,26.4801368 54.72609,26.4705882" id="Fill-5" fill="#E0BA5C"></path>
                <path d="M54.72609,26.4705882 C54.5994067,26.5348241 54.8105455,28.0964503 54.8151354,28.2474914 C54.8445113,29.2231822 55.0106683,30.1971369 55.0400441,31.1806402 C55.0896158,32.8308077 55.0758459,34.5287181 54.553507,36.119858 C54.1550974,37.3342632 52.9130509,39.9358161 51.4552757,40.2352941 C51.1468296,39.0113403 51.3469524,37.7205465 51.1734514,36.4766275 C51.0027045,35.2587501 50.7658619,33.9983381 50.3426665,32.8334119 C49.927733,31.6962633 49.2254672,30.6563366 48.7058824,29.5582504 C48.7058824,29.5582504 54.7068121,26.4801368 54.72609,26.4705882 Z" id="Stroke-7" stroke="#1D2320"></path>
                <path d="M59.2621794,22.1820822 C59.6476694,22.4380955 60.8798605,21.6960027 61.253304,21.5308049 C64.1264089,20.2645766 66.51507,18.0962471 68.3452868,15.5611957 C69.2539418,14.3001569 70.0335264,12.9457077 70.6892035,11.5350394 C71.3887646,10.0318258 72.2130936,8.31497933 71.9497902,6.61283635 C71.9454878,6.58342941 71.9394645,6.55229265 71.9205342,6.52980499 C71.8973016,6.5047226 71.8611619,6.49693841 71.8267431,6.49174895 C70.8372042,6.33087568 68.9347079,7.38087648 67.9907738,7.03318264 C67.9124711,6.63099946 67.7747961,6.04286063 68.0174483,5.66921949 C68.1224255,5.50921113 69.2126393,4.19541276 69.3546166,4.06654117 C69.9018747,3.56402843 70.4061093,2.91880553 70.4138536,2.17325307 C70.4250397,1.16995741 68.905452,0.770368968 68.1430767,0.499652122 C64.5480385,-0.776090201 59.8094375,0.448622429 57.4233578,3.51732329 C56.2858182,4.98075109 55.8297698,7.08940179 56.6807734,8.73705544 C57.1282171,9.6028304 57.8759644,10.2636217 58.5066879,11.0048496 C59.7466233,12.4639528 59.9832522,14.4618951 58.7243865,16.0083542 C57.3837763,17.655143 54.862603,17.6490886 52.9411765,17.9838088 C53.4144342,17.9838088 54.4926015,19.0156465 54.9348824,19.308851 C55.5836758,19.7395762 56.2316087,20.1694365 56.8786812,20.6001617 C57.6737542,21.1268919 58.4679668,21.6553519 59.2621794,22.1820822" id="Fill-9" fill="#F4AE1F"></path>
                <path d="M59.2621794,22.1820822 C59.6476694,22.4380955 60.8798605,21.6960027 61.253304,21.5308049 C64.1264089,20.2645766 66.51507,18.0962471 68.3452868,15.5611957 C69.2539418,14.3001569 70.0335264,12.9457077 70.6892035,11.5350394 C71.3887646,10.0318258 72.2130936,8.31497933 71.9497902,6.61283635 C71.9454878,6.58342941 71.9394645,6.55229265 71.9205342,6.52980499 C71.8973016,6.5047226 71.8611619,6.49693841 71.8267431,6.49174895 C70.8372042,6.33087568 68.9347079,7.38087648 67.9907738,7.03318264 C67.9124711,6.63099946 67.7747961,6.04286063 68.0174483,5.66921949 C68.1224255,5.50921113 69.2126393,4.19541276 69.3546166,4.06654117 C69.9018747,3.56402843 70.4061093,2.91880553 70.4138536,2.17325307 C70.4250397,1.16995741 68.905452,0.770368968 68.1430767,0.499652122 C64.5480385,-0.776090201 59.8094375,0.448622429 57.4233578,3.51732329 C56.2858182,4.98075109 55.8297698,7.08940179 56.6807734,8.73705544 C57.1282171,9.6028304 57.8759644,10.2636217 58.5066879,11.0048496 C59.7466233,12.4639528 59.9832522,14.4618951 58.7243865,16.0083542 C57.3837763,17.655143 54.862603,17.6490886 52.9411765,17.9838088 C53.4144342,17.9838088 54.4926015,19.0156465 54.9348824,19.308851 C55.5836758,19.7395762 56.2316087,20.1694365 56.8786812,20.6001617 C57.6737542,21.1268919 58.4679668,21.6553519 59.2621794,22.1820822 Z" id="Stroke-11" stroke="#1D2320"></path>
                <path d="M33.6726003,45.5294118 C33.4959418,45.6634003 34.255479,47.8596099 34.3282208,48.1232925 C34.928104,50.293735 35.1019285,52.5612334 34.7863993,54.7823511 C34.5955703,56.1222365 34.355617,57.5007725 33.8133603,58.7650746 C33.5885222,59.2890041 33.2540991,60.0534259 32.6296536,60.2853292 C31.4006014,60.7405466 31.4742879,58.7719458 31.4261083,58.1183222 C31.2031595,55.0726596 29.8210663,52.1815992 28.5882353,49.3807234 C28.5882353,49.3807234 33.6707109,45.5302707 33.6726003,45.5294118" id="Fill-13" fill="#E0BA5C"></path>
                <path d="M33.6726003,45.5294118 C33.4959418,45.6634003 34.255479,47.8596099 34.3282208,48.1232925 C34.928104,50.293735 35.1019285,52.5612334 34.7863993,54.7823511 C34.5955703,56.1222365 34.355617,57.5007725 33.8133603,58.7650746 C33.5885222,59.2890041 33.2540991,60.0534259 32.6296536,60.2853292 C31.4006014,60.7405466 31.4742879,58.7719458 31.4261083,58.1183222 C31.2031595,55.0726596 29.8210663,52.1815992 28.5882353,49.3807234 C28.5882353,49.3807234 33.6707109,45.5302707 33.6726003,45.5294118 Z" id="Stroke-15" stroke="#1D2320"></path>
                <path d="M26.4678691,51.8823529 C26.302177,51.9959949 27.0477918,54.8534026 27.1120398,55.2124081 C27.4146817,56.8972369 27.6192608,58.6905422 27.4899194,60.4347748 C27.3546605,62.2573515 26.6842834,64.0876765 25.9445862,65.7380683 C25.8228531,66.0075376 25.6884396,66.2856162 25.4593447,66.4689931 C23.9452901,67.6803135 23.7187314,63.8862202 23.6232048,63.2009245 C23.3687489,61.3680167 23.1802318,59.5264996 22.9359203,57.69187 C22.8911158,57.3526658 22.0533558,54.9136673 22.2714608,54.7655884 C22.2739969,54.7647274 26.4670238,51.8823529 26.4678691,51.8823529" id="Fill-17" fill="#E0BA5C"></path>
                <path d="M26.4678691,51.8823529 C26.302177,51.9959949 27.0477918,54.8534026 27.1120398,55.2124081 C27.4146817,56.8972369 27.6192608,58.6905422 27.4899194,60.4347748 C27.3546605,62.2573515 26.6842834,64.0876765 25.9445862,65.7380683 C25.8228531,66.0075376 25.6884396,66.2856162 25.4593447,66.4689931 C23.9452901,67.6803135 23.7187314,63.8862202 23.6232048,63.2009245 C23.3687489,61.3680167 23.1802318,59.5264996 22.9359203,57.69187 C22.8911158,57.3526658 22.0533558,54.9136673 22.2714608,54.7655884 C22.2739969,54.7647274 26.4670238,51.8823529 26.4678691,51.8823529 Z" id="Stroke-19" stroke="#1D2320"></path>
                <path d="M19.7771842,46.5882353 C19.9680466,47.0983452 19.0833858,48.7504921 18.916042,49.2724453 C18.1607335,51.6233497 15.3909675,53.4040815 13.3466595,54.7626826 C12.0739421,55.60779 10.8012246,56.4537434 9.52941176,57.2980048 C10.3245209,56.7735138 12.7794997,57.7277492 13.6469738,57.8952479 C15.3574988,58.2268616 17.123202,58.3402194 18.8599593,58.1261932 C20.6600358,57.9045534 21.8368698,56.9207096 23.2941176,55.9842393 C23.2941176,55.9842393 19.8034165,46.6584494 19.7771842,46.5882353" id="Fill-21" fill="#F4AE1F"></path>
                <path d="M19.7771842,46.5882353 C19.9680466,47.0983452 19.0833858,48.7504921 18.916042,49.2724453 C18.1607335,51.6233497 15.3909675,53.4040815 13.3466595,54.7626826 C12.0739421,55.60779 10.8012246,56.4537434 9.52941176,57.2980048 C10.3245209,56.7735138 12.7794997,57.7277492 13.6469738,57.8952479 C15.3574988,58.2268616 17.123202,58.3402194 18.8599593,58.1261932 C20.6600358,57.9045534 21.8368698,56.9207096 23.2941176,55.9842393 C23.2941176,55.9842393 19.8034165,46.6584494 19.7771842,46.5882353 Z" id="Stroke-23" stroke="#1D2320"></path>
                <path d="M60.3511101,22.7514098 C60.4722408,22.4701096 54.5448543,18.939614 54.0523157,18.6244866 C50.3996918,16.3019795 46.6152493,14.0408956 42.3249082,13.1266699 C31.5807966,10.8388803 20.454589,18.1606973 16.8812345,28.2768224 C15.8827972,31.1040675 15.7064452,34.1307152 16.0297572,37.0950497 C16.5089359,41.4908104 18.0239598,45.6604628 19.1150264,49.9209147 C19.8257784,52.6956385 20.5231704,55.4757035 21.2900343,58.2352941 C31.7607113,48.7111458 42.1734948,39.1282448 52.7617397,29.7340643 C55.333985,27.4507256 57.9311689,25.1985436 60.3511101,22.7514098" id="Fill-25" fill="#F3F4F6"></path>
                <path d="M60.3511101,22.7514098 C60.4722408,22.4701096 54.5448543,18.939614 54.0523157,18.6244866 C50.3996918,16.3019795 46.6152493,14.0408956 42.3249082,13.1266699 C31.5807966,10.8388803 20.454589,18.1606973 16.8812345,28.2768224 C15.8827972,31.1040675 15.7064452,34.1307152 16.0297572,37.0950497 C16.5089359,41.4908104 18.0239598,45.6604628 19.1150264,49.9209147 C19.8257784,52.6956385 20.5231704,55.4757035 21.2900343,58.2352941 C31.7607113,48.7111458 42.1734948,39.1282448 52.7617397,29.7340643 C55.333985,27.4507256 57.9311689,25.1985436 60.3511101,22.7514098 Z" id="Stroke-27" stroke="#1D2320"></path>
                <path d="M63.5294118,6.35294118 C63.5294118,7.52304386 62.5818674,8.47058824 61.4117647,8.47058824 C60.2426172,8.47058824 59.2941176,7.52304386 59.2941176,6.35294118 C59.2941176,5.18283849 60.2426172,4.23529412 61.4117647,4.23529412 C62.5818674,4.23529412 63.5294118,5.18283849 63.5294118,6.35294118" id="Fill-29" fill="#F7E6D6"></path>
                <path d="M63.5294118,6.35294118 C63.5294118,7.52304386 62.5818674,8.47058824 61.4117647,8.47058824 C60.2426172,8.47058824 59.2941176,7.52304386 59.2941176,6.35294118 C59.2941176,5.18283849 60.2426172,4.23529412 61.4117647,4.23529412 C62.5818674,4.23529412 63.5294118,5.18283849 63.5294118,6.35294118 Z" id="Stroke-31" stroke="#1D2320"></path>
                <path d="M5.29411765,39.7058824 C5.29411765,41.1673545 4.1094326,42.3529412 2.64615724,42.3529412 C1.18468505,42.3529412 0,41.1673545 0,39.7058824 C0,38.2444102 1.18468505,37.0588235 2.64615724,37.0588235 C4.1094326,37.0588235 5.29411765,38.2444102 5.29411765,39.7058824" id="Fill-33" fill="#F4AE1F"></path>
                <path d="M5.29411765,39.7058824 C5.29411765,41.1673545 4.1094326,42.3529412 2.64615724,42.3529412 C1.18468505,42.3529412 0,41.1673545 0,39.7058824 C0,38.2444102 1.18468505,37.0588235 2.64615724,37.0588235 C4.1094326,37.0588235 5.29411765,38.2444102 5.29411765,39.7058824 Z" id="Stroke-35" stroke="#1D2320"></path>
                <path d="M16.9411765,7.94117647 C16.9411765,9.40264866 15.7562896,10.5882353 14.2936668,10.5882353 C12.8319457,10.5882353 11.6470588,9.40264866 11.6470588,7.94117647 C11.6470588,6.47970428 12.8319457,5.29411765 14.2936668,5.29411765 C15.7562896,5.29411765 16.9411765,6.47970428 16.9411765,7.94117647" id="Fill-37" fill="#F3F4F6"></path>
                <path d="M16.9411765,7.94117647 C16.9411765,9.40264866 15.7562896,10.5882353 14.2936668,10.5882353 C12.8319457,10.5882353 11.6470588,9.40264866 11.6470588,7.94117647 C11.6470588,6.47970428 12.8319457,5.29411765 14.2936668,5.29411765 C15.7562896,5.29411765 16.9411765,6.47970428 16.9411765,7.94117647 Z" id="Stroke-39" stroke="#1D2320"></path>
                <path d="M49.7647059,67.2357448 C49.7647059,68.6969682 48.5798191,69.8823529 47.1171962,69.8823529 C45.6554751,69.8823529 44.4705882,68.6969682 44.4705882,67.2357448 C44.4705882,65.7736201 45.6554751,64.5882353 47.1171962,64.5882353 C48.5798191,64.5882353 49.7647059,65.7736201 49.7647059,67.2357448" id="Fill-41" fill="#F4AE1F"></path>
                <path d="M49.7647059,67.2357448 C49.7647059,68.6969682 48.5798191,69.8823529 47.1171962,69.8823529 C45.6554751,69.8823529 44.4705882,68.6969682 44.4705882,67.2357448 C44.4705882,65.7736201 45.6554751,64.5882353 47.1171962,64.5882353 C48.5798191,64.5882353 49.7647059,65.7736201 49.7647059,67.2357448 Z" id="Stroke-43" stroke="#1D2320"></path>
                <path d="M67.7647059,41.8230787 C67.7647059,43.2852035 66.5798191,44.4705882 65.1171962,44.4705882 C63.6554751,44.4705882 62.4705882,43.2852035 62.4705882,41.8230787 C62.4705882,40.3618554 63.6554751,39.1764706 65.1171962,39.1764706 C66.5798191,39.1764706 67.7647059,40.3618554 67.7647059,41.8230787" id="Fill-45" fill="#F3F4F6"></path>
                <path d="M67.7647059,41.8230787 C67.7647059,43.2852035 66.5798191,44.4705882 65.1171962,44.4705882 C63.6554751,44.4705882 62.4705882,43.2852035 62.4705882,41.8230787 C62.4705882,40.3618554 63.6554751,39.1764706 65.1171962,39.1764706 C66.5798191,39.1764706 67.7647059,40.3618554 67.7647059,41.8230787 Z" id="Stroke-47" stroke="#1D2320"></path>
            </g>
        </g>
    </g>
</svg>