<svg xmlns="http://www.w3.org/2000/svg" xmlns:xlink="http://www.w3.org/1999/xlink" width="84" height="84" viewBox="0 0 84 84">
    <defs>
        <path id="a" d="M.436 0h8.278v1.5H.436z"/>
        <path id="c" d="M.628 0h8.279v1.5H.628z"/>
    </defs>
    <g fill="none" fill-rule="evenodd">
        <path fill="#FFF" d="M0 0h84v84H0z"/>
        <path fill="#F4AE1F" d="M7.734 8.75v15.82c0 4.291 3.512 7.803 7.803 7.803 4.292 0 7.803-3.512 7.803-7.803V8.75H7.734z"/>
        <path stroke="#1D2320" d="M7.734 8.75v15.82c0 4.291 3.512 7.803 7.803 7.803 4.292 0 7.803-3.512 7.803-7.803V8.75H7.734z"/>
        <path fill="#F4AE1F" d="M21.007 8.75v15.82c0 4.291 3.512 7.803 7.803 7.803 4.292 0 7.803-3.512 7.803-7.803V8.75H21.007z"/>
        <path stroke="#1D2320" d="M21.007 8.75v15.82c0 4.291 3.512 7.803 7.803 7.803 4.292 0 7.803-3.512 7.803-7.803V8.75H21.007zM15.025 32.204v41.657M28.536 32.204v41.657"/>
        <path fill="#68B839" d="M71.966 28.637l-41.11 41.11-9.6-9.6 41.11-41.11z"/>
        <path stroke="#1D2320" d="M71.966 28.637l-41.11 41.11-9.6-9.6 41.11-41.11z"/>
        <path fill="#68B839" d="M16.412 36.21L40.5 60.3l-9.6 9.6L6.812 45.81z"/>
        <path stroke="#1D2320" stroke-width=".765" d="M16.412 36.21L40.5 60.3l-9.6 9.6L6.812 45.81z"/>
        <g transform="translate(10.5 72.655)">
            <mask id="b" fill="#fff">
                <use xlink:href="#a"/>
            </mask>
            <path stroke="#1D2320" d="M.436.75h8.278" mask="url(#b)"/>
        </g>
        <g transform="translate(24 72.655)">
            <mask id="d" fill="#fff">
                <use xlink:href="#c"/>
            </mask>
            <path stroke="#1D2320" d="M.628.75h8.279" mask="url(#d)"/>
        </g>
        <path stroke="#1D2320" d="M54.112 72.737c1.536-1.997 3.117-4.325 5.9-4.487 2.768-.162 4.71 1.082 6.17 3.114.855-1.401 1.952-1.606 3.317-2.586 3.525-2.529 6.306 1.056 7.794 3.959"/>
        <path fill="#F4AE1F" d="M63.67 55.725a3.489 3.489 0 1 1-6.978-.003 3.489 3.489 0 0 1 6.977.003"/>
        <path stroke="#1D2320" d="M63.67 55.725a3.489 3.489 0 1 1-6.978-.003 3.489 3.489 0 0 1 6.977.003z"/>
    </g>
</svg>
