<svg xmlns="http://www.w3.org/2000/svg" xmlns:xlink="http://www.w3.org/1999/xlink" width="84" height="84" viewBox="0 0 84 84">
    <defs>
        <path id="a" d="M.467 0H1.4v84H.467z"/>
        <path id="c" d="M0 .466h84V1.4H0z"/>
    </defs>
    <g fill="none" fill-rule="evenodd">
        <path fill="#FFF" d="M0 0h84v84H0z"/>
        <g transform="translate(41.067)">
            <mask id="b" fill="#fff">
                <use xlink:href="#a"/>
            </mask>
            <path stroke="#1D2320" stroke-width=".966" d="M.933 0v84" mask="url(#b)"/>
        </g>
        <g transform="translate(0 41.067)">
            <mask id="d" fill="#fff">
                <use xlink:href="#c"/>
            </mask>
            <path stroke="#1D2320" stroke-width=".93" d="M0 .933h84" mask="url(#d)"/>
        </g>
        <path stroke="#1D2320" stroke-width=".93" d="M17.482 16.432l2.908 2.908M62.887 61.838l2.909 2.908M21.575 61.471l-2.841 2.841M17.549 65.497l-1.254 1.254M69.608 13.437l-4.26 4.261"/>
        <path fill="#F3F4F6" d="M78.768 42L42 78.768 5.232 42 42 5.232z"/>
        <path stroke="#1D2320" d="M78.768 42L42 78.768 5.232 42 42 5.232z"/>
        <path fill="#E64D25" d="M57.291 32.197L31.712 57.776l-5.973-5.973 25.579-25.578z"/>
        <path stroke="#1D2320" d="M57.291 32.197L31.712 57.776l-5.973-5.973 25.579-25.578z"/>
        <path fill="#E64D25" d="M31.712 26.224L57.29 51.802l-5.974 5.975-25.578-25.58z"/>
        <path stroke="#1D2320" d="M31.712 26.224L57.29 51.802l-5.974 5.975-25.578-25.58z"/>
        <g>
            <path fill="#E64D25" d="M63.53 24.374a3.237 3.237 0 1 1-4.58-4.579l3.563-3.562a8.359 8.359 0 0 0-2.783-.482 8.4 8.4 0 1 0 8.4 8.4 8.354 8.354 0 0 0-.806-3.572l-3.795 3.795z"/>
            <path stroke="#1D2320" stroke-width="1.022" d="M63.53 24.374a3.237 3.237 0 1 1-4.58-4.579l3.563-3.562a8.359 8.359 0 0 0-2.783-.482 8.4 8.4 0 1 0 8.4 8.4 8.354 8.354 0 0 0-.806-3.572l-3.795 3.795z"/>
            <path fill="#E64D25" d="M23.812 51.668a8.4 8.4 0 0 0-8.4 8.4c0 .947.164 1.852.453 2.702l4.515-4.516a3.237 3.237 0 1 1 4.58 4.58l-4.793 4.793a8.343 8.343 0 0 0 3.645.841 8.4 8.4 0 0 0 0-16.8"/>
            <path stroke="#1D2320" stroke-width="1.022" d="M23.812 51.668a8.4 8.4 0 0 0-8.4 8.4c0 .947.164 1.852.453 2.702l4.515-4.516a3.237 3.237 0 1 1 4.58 4.58l-4.793 4.793a8.343 8.343 0 0 0 3.645.841 8.4 8.4 0 0 0 0-16.8z"/>
            <path fill="#E64D25" d="M58.895 62.889a3.237 3.237 0 1 1 4.579-4.579l4.272 4.272a8.4 8.4 0 1 0-8.016 5.887 8.356 8.356 0 0 0 3.82-.926l-4.655-4.654z"/>
            <path stroke="#1D2320" stroke-width="1.022" d="M58.895 62.889a3.237 3.237 0 1 1 4.579-4.579l4.272 4.272a8.4 8.4 0 1 0-8.016 5.887 8.356 8.356 0 0 0 3.82-.926l-4.655-4.654z"/>
            <path fill="#E64D25" d="M23.812 15.75c-.844 0-1.657.129-2.426.36l3.63 3.629a3.239 3.239 0 0 1-4.58 4.58l-4.062-4.063a8.355 8.355 0 0 0-.962 3.895 8.4 8.4 0 1 0 8.4-8.4"/>
            <path stroke="#1D2320" stroke-width="1.022" d="M23.812 15.75c-.844 0-1.657.129-2.426.36l3.63 3.629a3.239 3.239 0 0 1-4.58 4.58l-4.062-4.063a8.355 8.355 0 0 0-.962 3.895 8.4 8.4 0 1 0 8.4-8.4z"/>
        </g>
    </g>
</svg>
