<svg xmlns="http://www.w3.org/2000/svg" width="8" height="8" viewBox="0 0 8 8">
    <path fill="#FFF" fill-rule="evenodd" d="M7.787 1.089c.265-.266.286-.68.045-.92-.241-.242-.654-.221-.92.044l-2.43 2.428a.684.684 0 0 1-.965 0L1.09.213C.823-.052.409-.073.169.168c-.242.241-.221.654.044.92l2.428 2.43a.684.684 0 0 1 0 .965L.213 6.91c-.265.266-.286.68-.045.92.241.242.654.221.92-.044l2.43-2.428a.684.684 0 0 1 .965 0L6.91 7.787c.266.265.68.286.92.045.242-.241.221-.654-.044-.92l-2.428-2.43a.684.684 0 0 1 0-.965L7.787 1.09z"/>
</svg>
