<svg xmlns="http://www.w3.org/2000/svg" width="21" height="23" viewBox="0 0 21 23">
    <g fill="none" fill-rule="evenodd">
        <path fill="#F4AE1F" d="M1 9h18v13H1z"/>
        <g fill="#5A5A5A">
            <path d="M18.388 7.308V19.04c0 1.223-.96 2.2-2.128 2.2H3.74c-1.167 0-2.128-.977-2.128-2.2V4.374c0-1.223.96-2.2 2.128-2.2h9.92c.421 0 .763-.328.763-.733 0-.405-.342-.733-.763-.733H3.74A3.658 3.658 0 0 0 .087 4.374v14.667a3.659 3.659 0 0 0 3.653 3.667h12.52a3.658 3.658 0 0 0 3.653-3.667V7.308c0-.405-.341-.734-.762-.734-.422 0-.763.329-.763.734z"/>
            <path fill-rule="nonzero" d="M5.006 8.708h4.472c.412 0 .746.335.746.75 0 .414-.334.75-.746.75H5.006a.748.748 0 0 1-.745-.75c0-.415.334-.75.745-.75zm0 4.5h8.944c.412 0 .746.335.746.75 0 .414-.334.75-.746.75H5.006a.748.748 0 0 1-.745-.75c0-.415.334-.75.745-.75z"/>
            <path d="M11.565 8.708l8.348-8 1.044 1-8.348 8z"/>
        </g>
    </g>
</svg>
