<svg xmlns="http://www.w3.org/2000/svg" width="38" height="37" viewBox="0 0 38 37">
    <g fill="none" fill-rule="evenodd">
        <path fill="#FEFEFE" d="M35.457 18.731c0-8.862-7.382-16.045-16.488-16.045-9.108 0-16.49 7.183-16.49 16.045 0 6.928 4.513 12.833 10.836 15.077a17.055 17.055 0 0 0 9.288.578c7.357-1.612 12.854-8.009 12.854-15.655M18.97 1.385c9.846 0 17.828 7.766 17.828 17.346s-7.982 17.346-17.828 17.346c-9.848 0-17.83-7.766-17.83-17.346S9.121 1.385 18.969 1.385"/>
        <path fill="#F4AE1F" d="M13.32 23.618v10.18l-.005.01C6.992 31.564 2.479 25.659 2.479 18.73c0-8.862 7.382-16.045 16.49-16.045 9.106 0 16.488 7.183 16.488 16.045 0 7.646-5.497 14.044-12.854 15.655l-.031-.138v-3.312h2.242v-5.892h2.363V14.858c1.317-1.24 1.042-3.137 1.042-3.137h-10.16c-4.672 0-4.74 4.613-4.74 4.613v7.284z"/>
        <path fill="#FEFEFE" d="M27.177 14.858c-.64.6-1.653 1.049-3.258 1.049h-5.587v4.315s-.273 3.396-3.49 3.396H13.32v-7.284s.067-4.613 4.739-4.613h10.16s.275 1.896-1.042 3.137"/>
        <path fill="#FEFEFE" d="M23.61 19.72c0-.668-.316-1.209-.706-1.209-.389 0-.705.54-.705 1.209 0 .668.316 1.208.705 1.208.39 0 .707-.54.707-1.208zm-1.038 11.216h-5.608s-2.348-.228-2.348-2.282v-5.036h.226c3.217 0 3.49-3.396 3.49-3.396v-4.315h5.587c1.605 0 2.618-.448 3.258-1.049v10.186h-2.363v5.892h-2.242z"/>
        <path fill="#111" d="M22.904 18.511c.39 0 .707.54.707 1.208 0 .669-.317 1.209-.707 1.209-.389 0-.705-.54-.705-1.209 0-.668.316-1.208.705-1.208"/>
        <path fill="#F3F4F6" d="M22.572 34.248l.03.138a17.055 17.055 0 0 1-9.287-.578l.005-.01v-10.18h1.296v5.036c0 2.054 2.348 2.282 2.348 2.282h5.608v3.312z"/>
        <path stroke="#111" stroke-width=".7" d="M12.32 32.798V15.335s.067-4.614 4.739-4.614h10.16s.275 1.896-1.042 3.137c-.64.6-1.653 1.049-3.258 1.049h-5.587v4.316s-.273 3.395-3.49 3.395H12.29"/>
        <path stroke="#111" stroke-width=".7" d="M27.177 14.813v10.231h-2.363v5.892h-7.85s-2.348-.228-2.348-2.282v-5.031M22.572 30.93V34.249"/>
        <path stroke="#111" stroke-width=".5" d="M13.315 33.808C6.992 31.564 2.479 25.659 2.479 18.731c0-8.862 7.382-16.045 16.49-16.045 9.106 0 16.488 7.183 16.488 16.045 0 7.646-5.497 14.043-12.854 15.655a17.055 17.055 0 0 1-9.288-.578z"/>
        <path stroke="#111" stroke-width=".8" d="M36.797 18.731c0 9.58-7.982 17.346-17.828 17.346-9.848 0-17.83-7.766-17.83-17.346S9.121 1.385 18.969 1.385c9.846 0 17.828 7.766 17.828 17.346z"/>
    </g>
</svg>
