<svg xmlns="http://www.w3.org/2000/svg" width="619" height="299" viewBox="0 0 619 299">
    <defs>
        <path id="a" d="M.662.628h18.563v39.233H.662z"/>
    </defs>
    <g fill="none" fill-rule="evenodd" opacity=".8">
        <path stroke="#FFF" stroke-width="4" d="M172 103s-34.151 9.662-46 49M257 89s67.981 15.907 77 74M0 291.917h43.364s18.278 2.748 41.973-23.428c12.297-13.587 26.46-26.659 43.267-34.305 14.115-6.42 29.693-9.577 45.184-9.145 15.122.422 31.25 1.969 45.063 8.6 15.764 7.567 28.35 18.493 41.571 29.915 3.418 2.95 7.567.647 10.85-1.115 26.79-14.37 65.227-1.276 76.728 27.467"/>
        <path stroke="#FFF" stroke-width="4" d="M329 295.607s22.916-2.776 33.584-17.847c10.668-15.07 59.266-47.592 106.68-3.568 0 0 4.536 6.602 14.81 1.025 11.667-6.337 28.527-4.537 37.638 5.37 1.99 2.166 3.611 4.653 4.883 7.306 1.417 2.953 2.676 7.006 5.992 8.453 2.438 1.063 5.974.51 8.595.51H557"/>
        <path stroke="#FFF" stroke-width="4" d="M215 230.827s24.453 9.66 42.083-2.557c0 0 27.094-20.653 63.049-25.334 31.255-4.07 69.206 3.932 101.868 48.064M152.52 226c-4.833-10.8-7.52-22.775-7.52-35.378 0-47.84 38.727-86.622 86.5-86.622s86.5 38.782 86.5 86.622c0 4.134-.29 8.203-.85 12.184M200.672 109S141.862 179.388 218 233M163 137h22M156 147h26M150 160h29M146 172h33M145 181h35M145 193h39M146 203h44M147 215h49M482.34 129.323c-3.472-1.569-7.92-2.304-11.69-1.516-3.307.693-6.698 3.761-5.345 7.31.435 1.141 1.264 2.11 2.239 2.87 1.893 1.475 4.386 2.198 6.8 1.972 6.04-.564 8.718-6.055 8.655-11.43-.105-9.173-.185-18.338-.185-27.529M107.34 28.323c-3.472-1.569-7.92-2.304-11.69-1.516-3.307.693-6.698 3.761-5.345 7.31.435 1.141 1.264 2.11 2.239 2.87 1.893 1.475 4.386 2.198 6.8 1.972 6.04-.564 8.718-6.055 8.655-11.43-.105-9.173-.185-18.338-.185-27.529M54 200a8 8 0 0 1-8 8 8 8 0 0 1-8-8 8 8 0 0 1 8-8 8 8 0 0 1 8 8zM617 211a8 8 0 0 1-8 8 8 8 0 1 1 0-16 8 8 0 0 1 8 8z"/>
    </g>
</svg>
