<svg xmlns="http://www.w3.org/2000/svg" width="14" height="13" viewBox="0 0 14 13">
    <g fill="none" fill-rule="evenodd">
        <path fill="#FFCF73" d="M5.224 12.25l2.302-3.03 2.78.78L12.519.896 6.115 8.67z"/>
        <path fill="#505163" fill-rule="nonzero" d="M13.028.248c.11.223 0 .501-.245.622L.702 6.825c-.246.121-.533.039-.643-.184-.11-.222 0-.5.245-.621L12.385.064c.246-.12.533-.038.643.184zm-.316-.234c.241.055.4.261.355.46l-2.237 9.81c-.046.2-.279.316-.52.26-.242-.054-.401-.26-.356-.46l2.237-9.81c.046-.199.279-.315.52-.26zm-.115.432c.183.168.214.431.07.589L5.564 8.789c-.144.158-.41.15-.592-.018-.183-.168-.215-.431-.07-.589L12.005.428c.144-.157.41-.15.592.018zM4.433 8.115a.469.469 0 0 1-.6.28L.31 7.119a.469.469 0 1 1 .32-.881l3.524 1.278a.469.469 0 0 1 .28.6zm6.377 2.236a.469.469 0 0 1-.6.281L6.685 9.355a.469.469 0 0 1 .32-.881l3.524 1.277a.469.469 0 0 1 .28.6zm-5.154 1.99a.469.469 0 0 1-.937 0V8.59a.469.469 0 0 1 .937 0v3.75z"/>
    </g>
</svg>
