<svg xmlns="http://www.w3.org/2000/svg" width="32" height="32" viewBox="0 0 32 32">
    <path fill="#000" fill-rule="nonzero" d="M15.958 31.528C7.361 31.528.364 24.531.364 15.934S7.359.34 15.958.34c8.601 0 15.594 6.997 15.594 15.594S24.56 31.528 15.958 31.528zm0-29.11c-7.458 0-13.53 6.064-13.53 13.516S8.5 29.447 15.959 29.447c7.46 0 13.531-6.063 13.531-13.513 0-7.452-6.068-13.516-13.531-13.516zm-2.831 22.104a.78.78 0 0 1-.55-1.33l7.215-7.258-7.211-7.26a.785.785 0 0 1 0-1.105.775.775 0 0 1 1.096 0l8.303 8.365-8.308 8.36a.748.748 0 0 1-.545.228z"/>
</svg>
