<svg xmlns="http://www.w3.org/2000/svg" width="223" height="37" viewBox="0 0 223 37">
    <g fill="none" fill-rule="evenodd">
        <path stroke="#FFF" d="M183.136 14.224l10.231 21.886h-20.591l-10.878-21.756zM161.661 14.224L172.54 35.98h-21.661z"/>
        <path stroke="#FFF" d="M162.115 35.995V27.85a.4.4 0 0 0-.4-.4h-1.62a.4.4 0 0 0-.401.4v8.182M105.982 17.898L97.59 35.851h16.89l8.925-17.847z"/>
        <path stroke="#FFF" d="M123.411 17.898l-8.923 17.847h17.77z"/>
        <path stroke="#FFF" d="M122.57 35.929v-6.682c0-.181.146-.329.327-.329h1.33c.182 0 .329.148.329.329v6.712"/>
        <path d="M87.045 35.657s-1.043-5.596-7.056-3.656c-.036.012-.537-.501-.583-.54-1.703-1.402-4.049-1.911-6.099-.816-1.845.986-3.114 2.946-3.168 4.967l16.906.045"/>
        <path stroke="#FFF" d="M150.02 35.993s-1.042-5.596-7.056-3.656c-.036.012-.536-.502-.583-.54-1.703-1.403-4.049-1.911-6.098-.817-1.846.987-3.115 2.947-3.168 4.967l16.905.046zM26.826 35.914s-1.573-8.451-10.655-5.52c-.055.017-.81-.759-.88-.816-2.572-2.12-6.116-2.888-9.21-1.233-2.788 1.489-4.704 4.45-4.785 7.5l25.53.069zM194.224 35.776s1.685-9.047 11.408-5.91c.058.02.868-.811.942-.872 2.754-2.27 6.547-3.092 9.86-1.321 2.984 1.595 5.036 4.764 5.122 8.03l-27.332.073z"/>
        <path d="M33.474 35.657s.993-5.596 6.725-3.656c.034.012.511-.501.555-.54 1.623-1.402 3.86-1.911 5.812-.816 1.759.986 2.968 2.946 3.02 4.967l-16.112.045"/>
        <path stroke="#FFF" d="M80.621 35.993s.993-5.596 6.725-3.656c.034.012.51-.502.555-.54 1.623-1.403 3.859-1.911 5.812-.817 1.759.987 2.968 2.947 3.02 4.967l-16.112.046zM82.196 23.598a7.904 7.904 0 1 1-15.809 0 7.904 7.904 0 0 1 15.809 0zM73.973 26.714v9.74M55.613 33.055s-6.303.132-7.331-7.332c-.268-1.94.627-3.5 1.361-5.211.73-1.706 1.165-3.533 1.376-5.374.182-1.601.78-2.786 2.386-3.406 2.51-.969 6.434-.434 7.586 2.328.694 1.665.137 3.659.859 5.327 1.342 3.104 2.436 6.101.872 9.285-1.345 2.74-4.066 4.383-7.109 4.383zM35.292 29.996c-3.268-.097-6.484-1.743-8.345-5.04-2.13-3.775-1.295-7.824.331-11.619 1.026-2.394 1.391-4.816 1.875-7.346C30.572-1.43 42.318-.173 42.96 7.1c.11 1.241.088 2.509.384 3.727.293 1.205.89 2.32 1.318 3.479.967 2.62 1.603 5.47.832 8.228-1.256 4.496-5.55 7.6-10.203 7.461zM55.084 26.714v9.74M35.46 26.714v9.74"/>
        <path stroke="#FFF" d="M39.98 9.257a1.645 1.645 0 1 1-3.289 0 1.645 1.645 0 0 1 3.29 0zM42.855 20.245a2.347 2.347 0 1 1-4.693 0 2.347 2.347 0 0 1 4.693 0zM30.771 20.815a1.448 1.448 0 1 1-2.895 0 1.448 1.448 0 0 1 2.895 0z"/>
    </g>
</svg>
