<svg xmlns="http://www.w3.org/2000/svg" width="286" height="45" viewBox="0 0 286 45">
    <path fill="#FFF" fill-rule="evenodd" d="M17.672 2.272V32.8H13.64V6.496H6.056v26.352H2.072V2.272h15.6zM8.024 9.52h3.696v15.696c-.144 5.376-.864 9.696-2.16 12.864-1.296 2.976-3.408 5.28-6.336 6.912L.92 41.344c2.688-1.584 4.512-3.6 5.52-6 .96-2.592 1.488-6 1.584-10.128V9.52zm5.472 25.008a78.65 78.65 0 0 1 3.792 4.8c.816-.144 1.584-.288 2.352-.384V21.568h3.648v16.704c.768-.192 1.536-.336 2.256-.48V17.296h3.84v7.2h3.12v3.744h-3.12v8.64c1.536-.432 3.024-.864 4.416-1.344v3.984c-4.752 1.728-10.128 3.072-16.176 4.128l-.048-.336L16.04 44.8c-1.296-2.352-3.072-4.896-5.328-7.584l2.784-2.688zM20.408 3.52h10.128V7.6H20.408V3.52zm-1.392 7.92h14.496c-.048-3.216-.048-6.72-.048-10.464h4.032v2.16l3.36-1.152c1.248 2.16 2.304 4.464 3.216 6.912l-3.264 1.44c-1.056-2.688-2.16-5.088-3.312-7.104 0 2.928 0 5.664.048 8.208h6.96v4.272h-6.912c.192 8.784.528 14.688 1.008 17.664.576 3.648 1.248 5.664 2.016 6 .336-.096.624-2.016.864-5.712l3.456 2.4c-.672 5.712-2.064 8.592-4.08 8.592-1.2 0-2.304-.816-3.312-2.448-1.296-2.208-2.256-5.136-2.88-8.784-.576-3.264-.912-9.168-1.056-17.712H19.016V11.44zm46.08-7.488v35.952H60.68v-2.976h-5.76v4.128h-4.464V3.952h14.64zM54.92 32.704h5.76V22.288h-5.76v10.416zm0-14.688h5.76V8.08h-5.76v9.936zm17.376.432c2.928 4.464 5.184 8.352 6.72 11.712l-3.792 2.64c-1.68-3.552-3.936-7.584-6.72-12l3.792-2.352zM82.76 44.464h-8.496l-1.008-4.416c2.784.144 5.424.24 7.968.24 1.152 0 1.728-.624 1.728-1.872v-24.96H66.968V9.088h15.984V1.024h4.656v8.064h5.376v4.368h-5.376v26.112c0 3.264-1.632 4.896-4.848 4.896zm26.496-31.104h19.104v23.232h-19.104V13.36zm14.88 19.2v-5.616h-10.608v5.616h10.608zm-10.608-9.552h10.608v-5.616h-10.608v5.616zm19.728 21.552h-3.936l-1.152-4.272 4.128.096c1.296 0 1.968-.912 1.968-2.64V6.928h-18.096V2.752h22.512v36.24c0 3.696-1.824 5.568-5.424 5.568zM99.224 8.608h4.416v36.384h-4.416V8.608zM107.24.16a50.724 50.724 0 0 1 5.856 8.544l-4.128 2.16a53.703 53.703 0 0 0-5.856-8.88L107.24.16zm54.528 5.472c4.176 5.088 7.392 9.504 9.6 13.344l-3.888 2.64c-2.304-4.032-5.52-8.592-9.552-13.584l3.84-2.4zM177.704 30.4c-3.12 5.472-8.016 10.128-14.688 14.064l-3.072-3.792c8.016-4.704 13.248-10.464 15.744-17.28 1.92-5.808 2.88-13.296 2.976-22.464h4.704c0 9.12-1.008 16.896-3.024 23.232l-.576 1.776c3.744 4.848 6.912 9.648 9.552 14.448l-3.504 3.504c-2.016-4.224-4.752-8.736-8.112-13.488zm-28.848 9.648l-1.536-4.32c.96-.816 1.488-1.92 1.488-3.36V1.648h4.704v31.776a74.958 74.958 0 0 0 10.32-5.28l1.296 4.464c-5.088 2.88-10.512 5.328-16.272 7.44zm59.52-21.504v4.224h17.952v-4.224h-17.952zm17.952 8.208h-17.952v4.128h17.952v-4.128zm0 8.064h-17.952v10.032h-4.272V20.896a63.263 63.263 0 0 1-8.304 8.112l-2.928-3.84c5.568-4.416 9.984-9.504 13.152-15.168h-11.856V5.584h14.064c.72-1.728 1.344-3.504 1.92-5.232l4.656.528a59.982 59.982 0 0 1-1.584 4.704h23.184V10h-25.152a53.581 53.581 0 0 1-2.544 4.608H230.6v25.968c0 2.64-1.536 3.984-4.608 4.08h-5.376l-1.104-4.128c1.776.144 3.456.24 5.04.24 1.152 0 1.776-.528 1.776-1.584v-4.368zm15.504-32.592h24.24v4.272h-4.416v12.672h5.136v4.416h-5.136v21.024H257V23.584h-6.096c-.432 9.504-2.592 16.56-6.432 21.12l-3.408-2.976c3.12-3.936 4.848-9.984 5.232-18.144h-5.328v-4.416h5.424V6.496h-4.56V2.224zM251 6.496v12.672h6V6.496h-6zM279.416.784l2.976 3.456c-3.936 3.936-8.736 7.2-14.448 9.792l-1.92-4.176c5.424-2.304 9.888-5.328 13.392-9.072zm2.112 12.816l2.976 3.456c-3.936 4.272-8.784 7.824-14.544 10.608l-1.92-4.128c5.472-2.496 9.936-5.808 13.488-9.936zm1.152 13.296l3.024 3.456c-4.896 5.856-10.944 10.656-18.048 14.496l-1.968-4.224c6.912-3.456 12.576-8.064 16.992-13.728z"/>
</svg>
