<svg xmlns="http://www.w3.org/2000/svg" width="211" height="42" viewBox="0 0 211 42">
    <path fill="#FFF" fill-rule="evenodd" d="M14.32 7.945V39H8.86V7.945H.54V2.812h22.077v5.133H14.32zm18.633-5.133V39h-5.46V2.812h5.46zM40.383 39L48 .094l12.422 28.125L73.289.094 80.133 39H74.53L71.04 17.156 60.33 40.664 49.921 17.133 46.032 39h-5.65zm67.383-31.055H93.258v8.696h14.086v5.132H93.258v12.094h14.508V39h-19.97V2.812h19.97v5.133zm12.632-5.133v31.055h10.641V39h-16.101V2.812h5.46zm21.282 0V39h-5.461V2.812h5.46zM150.375 39V.352l26.39 27.609V2.813h5.462v38.39l-26.391-27.539V39h-5.461zm60.492-31.055H196.36v8.696h14.086v5.132H196.36v12.094h14.508V39h-19.969V2.812h19.97v5.133z"/>
</svg>
